<svg xmlns="http://www.w3.org/2000/svg" viewBox="0 0 400 300" width="400" height="300">
  <defs>
    <linearGradient id="bg" x1="0%" y1="0%" x2="100%" y2="100%"><stop offset="0%" stop-color="#0d0818"/><stop offset="100%" stop-color="#050310"/></linearGradient>
    <radialGradient id="glow" cx="50%" cy="55%" r="60%"><stop offset="0%" stop-color="#8e44ad" stop-opacity="0.3"/><stop offset="100%" stop-color="#8e44ad" stop-opacity="0"/></radialGradient>
    <filter id="fg"><feGaussianBlur stdDeviation="4" result="b"/><feMerge><feMergeNode in="b"/><feMergeNode in="SourceGraphic"/></feMerge></filter>
    <filter id="sg"><feGaussianBlur stdDeviation="9" result="b"/><feMerge><feMergeNode in="b"/><feMergeNode in="SourceGraphic"/></feMerge></filter>
  </defs>
  <rect width="400" height="300" fill="url(#bg)"/>
  <ellipse cx="200" cy="155" rx="185" ry="140" fill="url(#glow)"/>
  <rect x="18" y="80" width="364" height="178" rx="7" fill="#8e44ad" fill-opacity="0.07" stroke="#8e44ad" stroke-width="2" stroke-opacity="0.5"/>
  <line x1="18" y1="122" x2="382" y2="122" stroke="#8e44ad" stroke-width="1" stroke-opacity="0.4"/>
  <line x1="18" y1="164" x2="382" y2="164" stroke="#8e44ad" stroke-width="1" stroke-opacity="0.4"/>
  <line x1="18" y1="214" x2="382" y2="214" stroke="#8e44ad" stroke-width="1.5" stroke-opacity="0.5"/>
  <line x1="108" y1="80" x2="108" y2="214" stroke="#8e44ad" stroke-width="1" stroke-opacity="0.4"/>
  <line x1="200" y1="80" x2="200" y2="214" stroke="#8e44ad" stroke-width="1" stroke-opacity="0.4"/>
  <line x1="292" y1="80" x2="292" y2="214" stroke="#8e44ad" stroke-width="1" stroke-opacity="0.4"/>
  <rect x="22" y="84" width="82" height="36" rx="3" fill="#8e44ad" fill-opacity="0.15"/>
  <text x="63" y="105" text-anchor="middle" font-family="Arial Black,sans-serif" font-size="10" fill="#ce93d8" letter-spacing="1">SMALL</text>
  <text x="63" y="117" text-anchor="middle" font-family="Arial,sans-serif" font-size="8" fill="#9b59b6" fill-opacity="0.7">4–10 / x1</text>
  <rect x="112" y="84" width="84" height="36" rx="3" fill="#8e44ad" fill-opacity="0.1"/>
  <text x="154" y="105" text-anchor="middle" font-family="Arial Black,sans-serif" font-size="10" fill="#ce93d8" letter-spacing="1">BIG</text>
  <text x="154" y="117" text-anchor="middle" font-family="Arial,sans-serif" font-size="8" fill="#9b59b6" fill-opacity="0.7">11–17 / x1</text>
  <text x="246" y="105" text-anchor="middle" font-family="Arial Black,sans-serif" font-size="10" fill="#ce93d8" letter-spacing="1">ODD</text>
  <text x="336" y="105" text-anchor="middle" font-family="Arial Black,sans-serif" font-size="10" fill="#ce93d8" letter-spacing="1">EVEN</text>
  <text x="63" y="146" text-anchor="middle" font-family="Arial Black,sans-serif" font-size="9" fill="#ce93d8">TRIPLE</text>
  <text x="63" y="158" text-anchor="middle" font-family="Arial,sans-serif" font-size="8" fill="#9b59b6" fill-opacity="0.7">ANY x150</text>
  <text x="154" y="146" text-anchor="middle" font-family="Arial,sans-serif" font-size="8.5" fill="#ce93d8">DOUBLE</text>
  <text x="154" y="158" text-anchor="middle" font-family="Arial,sans-serif" font-size="7.5" fill="#9b59b6" fill-opacity="0.7">x8 – x10</text>
  <text x="246" y="146" text-anchor="middle" font-family="Arial,sans-serif" font-size="8.5" fill="#ce93d8">SINGLE</text>
  <text x="246" y="158" text-anchor="middle" font-family="Arial,sans-serif" font-size="7.5" fill="#9b59b6" fill-opacity="0.7">x1 – x3</text>
  <text x="336" y="146" text-anchor="middle" font-family="Arial,sans-serif" font-size="8.5" fill="#ce93d8">TOTAL</text>
  <text x="336" y="158" text-anchor="middle" font-family="Arial,sans-serif" font-size="7.5" fill="#9b59b6" fill-opacity="0.7">x6 – x60</text>
  <rect x="34" y="220" width="56" height="56" rx="9" fill="#180a28" stroke="#8e44ad" stroke-width="2.5" stroke-opacity="0.9"/>
  <circle cx="50" cy="236" r="5.5" fill="#ce93d8" filter="url(#fg)"/>
  <circle cx="70" cy="248" r="5.5" fill="#ce93d8" filter="url(#fg)"/>
  <circle cx="50" cy="260" r="5.5" fill="#ce93d8" filter="url(#fg)"/>
  <rect x="110" y="224" width="52" height="52" rx="9" fill="#180a28" stroke="#8e44ad" stroke-width="2.5" stroke-opacity="0.9"/>
  <circle cx="136" cy="250" r="6" fill="#ce93d8" filter="url(#fg)"/>
  <rect x="188" y="220" width="56" height="56" rx="9" fill="#180a28" stroke="#8e44ad" stroke-width="2.5" stroke-opacity="0.9"/>
  <circle cx="204" cy="234" r="5.5" fill="#ce93d8" filter="url(#fg)"/>
  <circle cx="228" cy="234" r="5.5" fill="#ce93d8" filter="url(#fg)"/>
  <circle cx="204" cy="258" r="5.5" fill="#ce93d8" filter="url(#fg)"/>
  <circle cx="228" cy="258" r="5.5" fill="#ce93d8" filter="url(#fg)"/>
  <rect x="264" y="224" width="50" height="22" rx="11" fill="#8e44ad" fill-opacity="0.25" stroke="#ce93d8" stroke-width="1.5" stroke-opacity="0.6"/>
  <text x="289" y="239" text-anchor="middle" font-family="Arial Black,sans-serif" font-size="12" fill="#ce93d8">x 150</text>
  <rect x="322" y="224" width="50" height="22" rx="11" fill="#8e44ad" fill-opacity="0.2" stroke="#ce93d8" stroke-width="1.5" stroke-opacity="0.5"/>
  <text x="347" y="239" text-anchor="middle" font-family="Arial Black,sans-serif" font-size="12" fill="#ce93d8">x 60</text>
  <text x="200" y="44" text-anchor="middle" font-family="Arial Black,sans-serif" font-size="32" font-weight="900" letter-spacing="8" fill="#ce93d8" filter="url(#sg)">SIC BO</text>
  <text x="200" y="62" text-anchor="middle" font-family="Arial,sans-serif" font-size="10" fill="#9b59b6" fill-opacity="0.7" letter-spacing="3">PREDICT THREE DICE</text>
</svg>